<?xml version="1.0" standalone="no"?><!-- Generator: Gravit.io --><svg xmlns="http://www.w3.org/2000/svg" xmlns:xlink="http://www.w3.org/1999/xlink" style="isolation:isolate" viewBox="0 0 2048 2048" width="2048" height="2048"><path d=" M 137.082 511.813 L 452 511.813 L 1024 1503.187 L 1597 511.813 L 1910.918 511.813 L 1024 2048 L 137.082 511.813 Z " fill="rgb(255,255,255)"/><path d=" M 0 1024 C 0 458.839 458.839 0 1024 0 C 1589.161 0 2048 458.839 2048 1024 C 2048 1589.161 1589.161 2048 1024 2048 C 458.839 2048 0 1589.161 0 1024 Z  M 256 1024 C 256 600.129 600.129 256 1024 256 C 1447.871 256 1792 600.129 1792 1024 C 1792 1447.871 1447.871 1792 1024 1792 C 600.129 1792 256 1447.871 256 1024 Z " fill-rule="evenodd" fill="rgb(255,255,255)"/><g id="55 (1)"><path d=" M 983.264 307.088 C 988.52 361.835 967.497 416.581 910.123 497.606 C 848.807 584.762 831.288 625.493 831.288 679.802 C 831.288 719.657 847.055 768.272 875.961 816.887 C 899.174 855.866 914.941 873.823 991.586 947.402 C 1034.945 989.009 1058.595 1026.237 1068.669 1069.596 L 1074.362 1093.246 L 1075.676 1062.588 C 1078.304 1005.214 1076.552 1000.835 1000.345 858.494 C 973.629 807.689 965.307 774.841 968.373 727.541 C 971.439 679.802 977.571 663.597 1011.294 615.858 C 1067.793 535.709 1083.122 478.773 1065.603 413.953 C 1057.281 383.295 1028.813 335.994 998.593 302.709 L 980.636 283 L 983.264 307.088 Z " fill="rgb(255,255,255)"/><path d=" M 1084.436 623.741 C 1073.048 638.632 1058.157 662.721 1051.588 677.174 C 1040.638 701.262 1039.325 707.832 1039.325 751.629 C 1039.762 796.302 1040.638 801.996 1053.34 828.712 C 1060.785 844.917 1076.99 872.947 1089.253 891.78 C 1150.131 984.192 1152.759 1099.378 1095.823 1183.468 C 1087.501 1195.732 1080.932 1206.681 1080.932 1207.995 C 1080.932 1212.813 1134.364 1180.403 1156.263 1162.008 C 1189.111 1134.854 1199.184 1121.715 1220.645 1079.231 C 1262.252 997.331 1266.194 937.767 1233.346 869.005 C 1226.338 854.114 1203.126 816.887 1181.227 785.791 C 1159.767 755.133 1136.116 717.467 1128.671 702.576 C 1114.218 671.918 1105.458 631.625 1108.524 610.602 C 1109.838 602.719 1109.838 596.149 1108.086 596.149 C 1106.334 596.149 1095.823 608.85 1084.436 623.741 Z " fill="rgb(255,255,255)"/><path d=" M 821.215 854.99 C 787.929 929.883 783.987 996.017 808.514 1049.011 C 822.529 1078.355 842.238 1100.692 902.24 1153.248 C 939.905 1186.534 956.11 1213.251 953.044 1237.777 C 952.168 1246.098 952.606 1253.106 953.92 1253.106 C 955.672 1253.106 964.869 1246.098 974.943 1237.339 C 986.33 1227.704 999.031 1209.747 1009.542 1188.286 C 1023.996 1159.818 1026.185 1151.059 1026.185 1126.532 C 1025.747 1081.859 1014.36 1063.902 942.971 990.323 C 866.326 911.488 853.625 895.284 841.362 859.37 L 831.726 830.902 L 821.215 854.99 Z " fill="rgb(255,255,255)"/></g></svg>
